<svg width="6" height="5" viewBox="0 0 6 5" fill="none" xmlns="http://www.w3.org/2000/svg">
<mask id="path-1-inside-1_171_20142" fill="white">
<path d="M0 0H6V5H0V0Z"/>
</mask>
<g clip-path="url(#paint0_diamond_171_20142_clip_path)" data-figma-skip-parse="true" mask="url(#path-1-inside-1_171_20142)"><g transform="matrix(0.003 0 0 0.005 3 0)"><rect x="0" y="0" width="2666.67" height="2000" fill="url(#paint0_diamond_171_20142)" opacity="1" shape-rendering="crispEdges"/><rect x="0" y="0" width="2666.67" height="2000" transform="scale(1 -1)" fill="url(#paint0_diamond_171_20142)" opacity="1" shape-rendering="crispEdges"/><rect x="0" y="0" width="2666.67" height="2000" transform="scale(-1 1)" fill="url(#paint0_diamond_171_20142)" opacity="1" shape-rendering="crispEdges"/><rect x="0" y="0" width="2666.67" height="2000" transform="scale(-1)" fill="url(#paint0_diamond_171_20142)" opacity="1" shape-rendering="crispEdges"/></g></g><path d="M0 0V-5H-3V0H0ZM6 0H9V-5H6V0ZM0 0V5H6V0V-5H0V0ZM6 0H3V5H6H9V0H6ZM0 5H3V0H0H-3V5H0Z" data-figma-gradient-fill="{&#34;type&#34;:&#34;GRADIENT_DIAMOND&#34;,&#34;stops&#34;:[{&#34;color&#34;:{&#34;r&#34;:0.72549021244049072,&#34;g&#34;:0.58431375026702881,&#34;b&#34;:0.46274510025978088,&#34;a&#34;:1.0},&#34;position&#34;:0.99999988079071045},{&#34;color&#34;:{&#34;r&#34;:0.0,&#34;g&#34;:0.0,&#34;b&#34;:0.0,&#34;a&#34;:0.0},&#34;position&#34;:1.0}],&#34;stopsVar&#34;:[{&#34;color&#34;:{&#34;r&#34;:0.72549021244049072,&#34;g&#34;:0.58431375026702881,&#34;b&#34;:0.46274510025978088,&#34;a&#34;:1.0},&#34;position&#34;:0.99999988079071045},{&#34;color&#34;:{&#34;r&#34;:0.0,&#34;g&#34;:0.0,&#34;b&#34;:0.0,&#34;a&#34;:0.0},&#34;position&#34;:1.0}],&#34;transform&#34;:{&#34;m00&#34;:6.0,&#34;m01&#34;:0.0,&#34;m02&#34;:0.0,&#34;m10&#34;:0.0,&#34;m11&#34;:10.0,&#34;m12&#34;:-5.0},&#34;opacity&#34;:1.0,&#34;blendMode&#34;:&#34;NORMAL&#34;,&#34;visible&#34;:true}" mask="url(#path-1-inside-1_171_20142)"/>
<defs>
<clipPath id="paint0_diamond_171_20142_clip_path"><path d="M0 0V-5H-3V0H0ZM6 0H9V-5H6V0ZM0 0V5H6V0V-5H0V0ZM6 0H3V5H6H9V0H6ZM0 5H3V0H0H-3V5H0Z" mask="url(#path-1-inside-1_171_20142)"/></clipPath><linearGradient id="paint0_diamond_171_20142" x1="0" y1="0" x2="500" y2="500" gradientUnits="userSpaceOnUse">
<stop offset="1" stop-color="#B99576"/>
<stop offset="1" stop-opacity="0"/>
</linearGradient>
</defs>
</svg>
