<svg width="37" height="36" viewBox="0 0 37 36" fill="none" xmlns="http://www.w3.org/2000/svg">
<path d="M12.8966 35.9274C12.6924 35.9274 12.4942 35.8183 12.3898 35.6264C11.7348 34.4224 11.2434 33.0456 10.9278 31.5352C10.1692 27.8994 8.60045 23.1664 5.43611 21.2628C3.5157 20.108 1.92393 20.5495 1.90857 20.5541C1.60297 20.6424 1.28354 20.4666 1.19524 20.161C1.10693 19.8554 1.28277 19.5359 1.58838 19.4476C1.67284 19.4231 3.68386 18.8648 6.03043 20.2761C8.85691 21.9762 10.8841 25.6849 12.0558 31.3003C12.3484 32.7001 12.8006 33.9709 13.4019 35.0766C13.5539 35.3561 13.4502 35.7055 13.1707 35.8575C13.0832 35.9051 12.9887 35.9274 12.8958 35.9274H12.8966Z" fill="white"/>
<path d="M27.9143 34.2957C27.8491 34.2957 27.7823 34.2842 27.7178 34.2612C27.4191 34.1521 27.2647 33.822 27.373 33.5233L29.9714 26.3738C30.1672 25.8324 29.9392 25.2235 29.4401 24.9425L26.3464 23.8452C26.2082 23.7961 26.093 23.6955 26.0262 23.5649L25.643 22.817L24.763 25.0262C24.6663 25.2696 24.416 25.417 24.1557 25.3848C23.8954 25.3517 23.6904 25.1475 23.6566 24.8872L23.3011 22.1237C23.1314 22.2949 22.9271 22.5168 22.7413 22.7341C22.5977 22.9023 22.3712 22.9737 22.1577 22.9176C21.9442 22.8623 21.7815 22.6896 21.7377 22.473L21.204 19.7971C21.1779 19.8093 21.1518 19.8216 21.1242 19.8347C20.8362 19.9698 20.493 19.8454 20.3586 19.5575C20.2235 19.2695 20.3479 18.9263 20.6358 18.7919C21.0881 18.58 21.376 18.4426 21.3768 18.4426C21.5373 18.3658 21.7239 18.3681 21.8828 18.4479C22.0418 18.5278 22.1546 18.676 22.1892 18.8503L22.6476 21.1516C22.7866 21.0218 22.9217 20.9097 23.0331 20.8421C23.298 20.6824 23.6205 20.6709 23.8961 20.8099C24.168 20.9473 24.3492 21.2092 24.3814 21.5117L24.5135 22.536L24.7285 21.9954C24.7515 21.9378 24.7838 21.8833 24.8245 21.8357C25.0418 21.58 25.3704 21.4449 25.7044 21.4741C26.0385 21.504 26.3387 21.6944 26.5076 21.9847C26.513 21.9931 26.5176 22.0023 26.5222 22.0116L26.9445 22.8362L29.8647 23.8721C29.89 23.8813 29.9154 23.892 29.9392 23.9043C30.9689 24.4426 31.4472 25.6735 31.0518 26.7661L28.4534 33.9164C28.3681 34.1506 28.1478 34.2957 27.912 34.2957H27.9143Z" fill="white"/>
<path d="M15.4282 22.1998C15.4152 22.1998 15.4029 22.1998 15.3914 22.1998C15.1756 22.1944 14.9483 22.1107 14.5713 21.9725C13.385 21.5356 10.9171 20.6272 7.41182 21.9019C7.11313 22.0109 6.78218 21.8566 6.67391 21.5579C6.56487 21.2592 6.71921 20.9282 7.01791 20.82C10.9194 19.401 13.7574 20.446 14.9691 20.8921C15.1288 20.9505 15.3223 21.0227 15.4114 21.045C15.5373 21.0165 16.0302 20.8706 17.7618 20.1066C18.0528 19.9784 18.3929 20.1105 18.5212 20.4015C18.6494 20.6925 18.5173 21.0327 18.2263 21.1609C15.9995 22.143 15.6164 22.2013 15.4282 22.2013V22.1998Z" fill="white"/>
<path d="M15.7001 19.9829C15.5803 19.9829 15.4597 19.946 15.356 19.8685C12.0212 17.3822 8.57587 16.298 5.11514 16.645C2.52977 16.9046 0.898838 17.9112 0.882713 17.9212C0.613963 18.0901 0.258448 18.0095 0.0887515 17.7408C-0.080177 17.472 -0.00109116 17.1173 0.267659 16.9476C0.341373 16.9007 2.10053 15.8035 4.93623 15.5055C7.53235 15.2322 11.5682 15.6077 16.0448 18.9455C16.2997 19.136 16.3527 19.4961 16.1623 19.7518C16.0494 19.9038 15.8759 19.9837 15.7001 19.9837V19.9829Z" fill="white"/>
<path d="M33.2694 34.752C32.6828 34.752 32.1161 34.6568 31.5717 34.4672C29.3318 33.6847 28.3351 31.5693 28.2937 31.4794C28.1608 31.1907 28.2868 30.8482 28.5755 30.7154C28.8634 30.5826 29.2051 30.7077 29.3387 30.9957C29.3472 31.0133 30.1857 32.7687 31.9625 33.3837C33.1381 33.7907 34.4849 33.6194 35.9653 32.8739C36.2494 32.731 36.5957 32.8447 36.7386 33.1295C36.8814 33.4137 36.767 33.76 36.4829 33.9028C35.3587 34.4687 34.2837 34.7528 33.2694 34.7528V34.752Z" fill="white"/>
<path d="M21.6532 7.44614H17.3794C17.0945 7.44614 16.8518 7.23728 16.8096 6.95547L15.869 0.661351C15.8221 0.346529 16.0387 0.0539759 16.3535 0.00636873C16.6683 -0.0404705 16.9609 0.176065 17.0085 0.490887L17.8762 6.29435H21.1572L22.0249 0.490887C22.0717 0.176065 22.365 -0.0397027 22.6799 0.00636873C22.9947 0.053208 23.2112 0.346529 23.1644 0.661351L22.2238 6.95547C22.1815 7.23728 21.9397 7.44614 21.654 7.44614H21.6532Z" fill="white"/>
<path d="M20.2588 11.4622H18.7745C18.4758 11.4622 18.2263 11.2333 18.2009 10.9362L17.8546 6.92028C17.827 6.60315 18.0619 6.32442 18.3791 6.29678C18.6954 6.2699 18.9749 6.5041 19.0026 6.82122L19.3036 10.3104H19.7313L20.0323 6.82122C20.0599 6.5041 20.3379 6.2699 20.6558 6.29678C20.9729 6.32442 21.2071 6.60315 21.1802 6.92028L20.8339 10.9362C20.8086 11.2341 20.559 11.4622 20.2603 11.4622H20.2588Z" fill="white"/>
<path d="M19.5001 33.8044C19.2882 33.8044 19.1162 33.6324 19.1162 33.4205V31.9616C19.1162 31.7496 19.2882 31.5776 19.5001 31.5776C19.7121 31.5776 19.8841 31.7496 19.8841 31.9616V33.4205C19.8841 33.6324 19.7121 33.8044 19.5001 33.8044Z" fill="white"/>
<path d="M17.8231 27.9509C17.7249 27.9509 17.6266 27.9132 17.5513 27.8388L16.7366 27.0241C16.5869 26.8743 16.5869 26.6309 16.7366 26.4812C16.8864 26.3315 17.1298 26.3315 17.2795 26.4812L18.0942 27.2959C18.2439 27.4456 18.2439 27.689 18.0942 27.8388C18.0189 27.914 17.9207 27.9509 17.8224 27.9509H17.8231Z" fill="white"/>
<path d="M22.0579 32.1864C21.9596 32.1864 21.8613 32.1488 21.786 32.0743L21.0259 31.3141C20.8761 31.1644 20.8761 30.921 21.0259 30.7712C21.1756 30.6215 21.419 30.6215 21.5687 30.7712L22.3289 31.5314C22.4787 31.6811 22.4787 31.9246 22.3289 32.0743C22.2537 32.1495 22.1554 32.1864 22.0571 32.1864H22.0579Z" fill="white"/>
<path d="M17.1966 29.5811H16.0448C15.8329 29.5811 15.6609 29.4091 15.6609 29.1972C15.6609 28.9852 15.8329 28.8132 16.0448 28.8132H17.1966C17.4085 28.8132 17.5805 28.9852 17.5805 29.1972C17.5805 29.4091 17.4085 29.5811 17.1966 29.5811Z" fill="white"/>
<path d="M17.0084 32.2402C16.9102 32.2402 16.8119 32.2026 16.7366 32.1281C16.5869 31.9784 16.5869 31.735 16.7366 31.5852L17.6051 30.7168C17.7548 30.5671 17.9982 30.5671 18.1479 30.7168C18.2977 30.8665 18.2977 31.1099 18.1479 31.2597L17.2795 32.1281C17.2042 32.2034 17.106 32.2402 17.0077 32.2402H17.0084Z" fill="white"/>
<path d="M21.2977 27.951C21.1994 27.951 21.1011 27.9134 21.0259 27.8389C20.8761 27.6892 20.8761 27.4458 21.0259 27.2961L21.786 26.5359C21.9358 26.3862 22.1792 26.3862 22.3289 26.5359C22.4787 26.6856 22.4787 26.929 22.3289 27.0788L21.5687 27.8389C21.4935 27.9142 21.3952 27.951 21.2969 27.951H21.2977Z" fill="white"/>
<path d="M23.2626 29.5044H22.1109C21.8989 29.5044 21.7269 29.3324 21.7269 29.1205C21.7269 28.9086 21.8989 28.7366 22.1109 28.7366H23.2626C23.4746 28.7366 23.6466 28.9086 23.6466 29.1205C23.6466 29.3324 23.4746 29.5044 23.2626 29.5044Z" fill="white"/>
<path d="M19.5001 27.9687C19.2882 27.9687 19.1162 27.7967 19.1162 27.5847V11.2294C19.1162 11.0175 19.2882 10.8455 19.5001 10.8455C19.7121 10.8455 19.8841 11.0175 19.8841 11.2294V27.5847C19.8841 27.7967 19.7121 27.9687 19.5001 27.9687Z" fill="white"/>
</svg>
