<svg width="24" height="24" viewBox="0 0 24 24" fill="none" xmlns="http://www.w3.org/2000/svg">
<g clip-path="url(#clip0_1318_37901)">
<g clip-path="url(#clip1_1318_37901)">
<path d="M24 12C24 8.8174 22.7357 5.76516 20.4853 3.51472C18.2348 1.26428 15.1826 0 12 0C8.8174 0 5.76518 1.26428 3.51475 3.51472C1.26431 5.76516 1.38323e-07 8.8174 1.38323e-07 12C-0.000433583 14.8579 1.01912 17.6221 2.8752 19.7953C4.73127 21.9684 7.30201 23.4078 10.1248 23.8544V15.4688H7.07764V12H10.1248V9.36C10.1248 6.3528 11.916 4.6912 14.6576 4.6912C15.5576 4.70371 16.4555 4.78206 17.344 4.9256V7.8784H15.8312C15.5734 7.84427 15.3113 7.86853 15.0642 7.94939C14.817 8.03025 14.5912 8.16563 14.4035 8.34553C14.2158 8.52543 14.0709 8.74524 13.9796 8.98869C13.8883 9.23215 13.8529 9.49301 13.876 9.752V12H17.204L16.672 15.4688H13.872V23.8544C16.6953 23.4085 19.2669 21.9694 21.1236 19.7962C22.9804 17.623 24.0003 14.8584 24 12Z" fill="#1877F2"/>
<path d="M16.6713 15.4689L17.2032 12.0001H13.8752V9.7489C13.8521 9.48992 13.8875 9.22905 13.9788 8.9856C14.0701 8.74214 14.215 8.52234 14.4027 8.34244C14.5905 8.16254 14.8163 8.02715 15.0634 7.94629C15.3105 7.86543 15.5727 7.84117 15.8304 7.87531H17.3432V4.92251C16.4547 4.77896 15.5568 4.70062 14.6568 4.68811C11.916 4.68811 10.124 6.34971 10.124 9.35691V11.9969H7.07843V15.4657H10.1256V23.8513C10.746 23.9485 11.3729 23.9971 12.0008 23.9969C12.6287 23.9971 13.2557 23.9485 13.876 23.8513V15.4689H16.6713Z" fill="white"/>
</g>
</g>
<defs>
<clipPath id="clip0_1318_37901">
<rect width="24" height="24" fill="white"/>
</clipPath>
<clipPath id="clip1_1318_37901">
<rect width="24" height="24" fill="white"/>
</clipPath>
</defs>
</svg>
