<svg width="31" height="31" viewBox="0 0 31 31" fill="none" xmlns="http://www.w3.org/2000/svg">
<path d="M28.6552 25.5972H14.6911C13.3983 25.5972 12.3464 24.5453 12.3464 23.2525V2.34468C12.3464 1.05188 13.3983 0 14.6911 0H28.6552C29.948 0 30.9999 1.05188 30.9999 2.34468V23.2525C30.9999 24.5453 29.948 25.5972 28.6552 25.5972ZM14.6904 1.07626C13.9906 1.07626 13.4213 1.64558 13.4213 2.3454V23.2532C13.4213 23.953 13.9906 24.5224 14.6904 24.5224H28.6545C29.3543 24.5224 29.9237 23.953 29.9237 23.2532V2.3454C29.9237 1.64558 29.3543 1.07626 28.6545 1.07626H14.6904Z" fill="white"/>
<path d="M18.6047 30.4981H11.291C9.31418 30.4981 7.70588 28.8898 7.70588 26.913V7.73245C7.70588 6.52641 6.72499 5.54551 5.51895 5.54551C4.31291 5.54551 3.33201 6.52641 3.33201 7.73245V9.27406C3.33201 9.57091 3.09109 9.81183 2.79424 9.81183C2.49739 9.81183 2.25647 9.57091 2.25647 9.27406V7.73245C2.25647 5.93343 3.71992 4.46997 5.51895 4.46997C7.31797 4.46997 8.78143 5.93343 8.78143 7.73245V26.913C8.78143 28.2968 9.90716 29.4226 11.291 29.4226H18.6047C19.9886 29.4226 21.1143 28.2968 21.1143 26.913C21.1143 26.6161 21.3552 26.3752 21.6521 26.3752C21.9489 26.3752 22.1899 26.6161 22.1899 26.913C22.1899 28.8898 20.5816 30.4981 18.6047 30.4981Z" fill="white"/>
<path d="M24.2162 27.283H19.2149C18.918 27.283 18.6771 27.0421 18.6771 26.7452V25.0595C18.6771 24.7627 18.918 24.5217 19.2149 24.5217H24.2162C24.513 24.5217 24.7539 24.7627 24.7539 25.0595V26.7452C24.7539 27.0421 24.513 27.283 24.2162 27.283ZM19.7519 26.2075H23.6777V25.5973H19.7519V26.2075Z" fill="white"/>
<path d="M4.11859 13.9296H1.46917C1.17232 13.9296 0.931396 13.6887 0.931396 13.3918V9.36785C0.931396 9.071 1.17232 8.83008 1.46917 8.83008H4.11859C4.41544 8.83008 4.65636 9.071 4.65636 9.36785V13.3918C4.65636 13.6887 4.41544 13.9296 4.11859 13.9296ZM2.00694 12.854H3.58082V9.90562H2.00694V12.854Z" fill="white"/>
<path d="M2.79424 16.265C2.49739 16.265 2.25647 16.024 2.25647 15.7272V13.5761C2.25647 13.2793 2.49739 13.0383 2.79424 13.0383C3.09109 13.0383 3.33201 13.2793 3.33201 13.5761V15.7272C3.33201 16.024 3.09109 16.265 2.79424 16.265Z" fill="white"/>
<path d="M30.2923 7.05137H13.0837C12.7868 7.05137 12.5459 6.81045 12.5459 6.5136C12.5459 6.21675 12.7868 5.97583 13.0837 5.97583H30.2923C30.5892 5.97583 30.8301 6.21675 30.8301 6.5136C30.8301 6.81045 30.5892 7.05137 30.2923 7.05137Z" fill="white"/>
<path d="M16.3102 9.63256H13.0836C12.8857 9.63256 12.7251 9.47194 12.7251 9.27404C12.7251 9.07614 12.8857 8.91553 13.0836 8.91553H16.3102C16.5081 8.91553 16.6688 9.07614 16.6688 9.27404C16.6688 9.47194 16.5081 9.63256 16.3102 9.63256Z" fill="white"/>
<path d="M16.3102 12.4289H13.0836C12.8857 12.4289 12.7251 12.2683 12.7251 12.0704C12.7251 11.8725 12.8857 11.7119 13.0836 11.7119H16.3102C16.5081 11.7119 16.6688 11.8725 16.6688 12.0704C16.6688 12.2683 16.5081 12.4289 16.3102 12.4289Z" fill="white"/>
<path d="M16.3102 15.2253H13.0836C12.8857 15.2253 12.7251 15.0647 12.7251 14.8668C12.7251 14.6689 12.8857 14.5083 13.0836 14.5083H16.3102C16.5081 14.5083 16.6688 14.6689 16.6688 14.8668C16.6688 15.0647 16.5081 15.2253 16.3102 15.2253Z" fill="white"/>
<path d="M16.3102 18.022H13.0836C12.8857 18.022 12.7251 17.8613 12.7251 17.6634C12.7251 17.4655 12.8857 17.3049 13.0836 17.3049H16.3102C16.5081 17.3049 16.6688 17.4655 16.6688 17.6634C16.6688 17.8613 16.5081 18.022 16.3102 18.022Z" fill="white"/>
<path d="M16.3102 20.8183H13.0836C12.8857 20.8183 12.7251 20.6577 12.7251 20.4598C12.7251 20.2619 12.8857 20.1013 13.0836 20.1013H16.3102C16.5081 20.1013 16.6688 20.2619 16.6688 20.4598C16.6688 20.6577 16.5081 20.8183 16.3102 20.8183Z" fill="white"/>
<path d="M27.962 17.269C27.6651 17.269 27.4242 17.028 27.4242 16.7312V11.8554C27.4242 11.5585 27.6651 11.3176 27.962 11.3176C28.2588 11.3176 28.4997 11.5585 28.4997 11.8554V16.7312C28.4997 17.028 28.2588 17.269 27.962 17.269Z" fill="white"/>
<path d="M27.962 10.2421C27.6651 10.2421 27.4242 10.0011 27.4242 9.70428V8.77215C27.4242 8.4753 27.6651 8.23438 27.962 8.23438C28.2588 8.23438 28.4997 8.4753 28.4997 8.77215V9.70428C28.4997 10.0011 28.2588 10.2421 27.962 10.2421Z" fill="white"/>
<path d="M2.79426 26.4405C1.25337 26.4405 0 25.1871 0 23.6462C0 21.5195 2.24573 18.0018 2.34181 17.8526C2.44076 17.6992 2.60998 17.606 2.79282 17.606H2.79426C2.97638 17.606 3.1456 17.6977 3.24527 17.8505C3.34063 17.9975 5.58852 21.475 5.58852 23.6462C5.58852 25.1871 4.33515 26.4405 2.79426 26.4405ZM2.79641 19.1798C2.08584 20.4167 1.07554 22.4394 1.07554 23.6462C1.07554 24.5941 1.84635 25.3649 2.79426 25.3649C3.74217 25.3649 4.51298 24.5941 4.51298 23.6462C4.51298 22.4122 3.50698 20.4052 2.79713 19.1798H2.79641Z" fill="white"/>
</svg>
