<svg width="41" height="23" viewBox="0 0 41 23" fill="none" xmlns="http://www.w3.org/2000/svg">
<path d="M1.89581 9.78711C9.50706 14.0642 13.2026 10.7238 20.2231 10.7238" stroke="white" stroke-width="0.887823" stroke-linecap="round" stroke-linejoin="round"/>
<path d="M1.89581 9.78711C9.50706 14.0642 13.2026 10.7238 20.2231 10.7238" stroke="white" stroke-width="0.887823" stroke-linecap="round" stroke-linejoin="round"/>
<path d="M38.5493 9.78711C30.938 14.0642 27.2425 10.7238 20.222 10.7238" stroke="white" stroke-width="0.887823" stroke-linecap="round" stroke-linejoin="round"/>
<path d="M20.2219 4.85651C21.7229 4.85651 23.251 3.68792 25.8386 4.1274C29.6866 4.78106 34.0417 9.78727 38.5492 9.78727C33.4871 13.2287 31.4552 17.8598 20.2219 17.8598C8.98856 17.8598 6.95671 13.2287 1.89459 9.78727C6.40216 9.78727 10.7573 4.77995 14.6052 4.1274C17.1928 3.68792 18.7209 4.85651 20.2219 4.85651Z" stroke="white" stroke-width="0.887823" stroke-linecap="round" stroke-linejoin="round"/>
<path d="M38.5493 9.78711C30.938 14.0642 27.2425 10.7238 20.222 10.7238" stroke="white" stroke-width="0.887823" stroke-linecap="round" stroke-linejoin="round"/>
<path d="M40.222 7.98593C36.0713 5.31691 32.0867 0.832298 28.4217 0.287397C28.1201 0.240786 27.8242 0.221924 27.5407 0.221924C24.2834 0.221924 22.238 1.66353 20.222 1.66353" stroke="#7D7D7D" stroke-width="0.443911" stroke-linecap="round" stroke-linejoin="round" stroke-dasharray="1.89 1.89"/>
<path d="M0.221985 7.98593C4.37265 5.31691 8.35729 0.832298 12.0223 0.287397C12.3239 0.240786 12.6198 0.221924 12.9032 0.221924C16.1605 0.221924 18.2059 1.66353 20.222 1.66353" stroke="#7D7D7D" stroke-width="0.443911" stroke-linecap="round" stroke-linejoin="round" stroke-dasharray="1.89 1.89"/>
<path d="M20.2106 22.23C26.8811 22.2333 33.5515 19.2402 40.2219 13.2507" stroke="#7D7D7D" stroke-width="0.443911" stroke-linecap="round" stroke-linejoin="round" stroke-dasharray="1.89 1.89"/>
<path d="M0.221985 13.252C6.88451 19.2348 13.5482 22.2278 20.2107 22.2312" stroke="#7D7D7D" stroke-width="0.443911" stroke-linecap="round" stroke-linejoin="round" stroke-dasharray="1.89 1.89"/>
</svg>
