<svg width="37" height="23" viewBox="0 0 37 23" fill="none" xmlns="http://www.w3.org/2000/svg">
<path d="M5.28205 19.2461C3.94566 19.0278 2.64487 18.232 2.04473 17.9973C0.678536 17.4632 0.0219445 16.4635 1.23711 15.619C2.031 15.0673 2.9779 14.7306 3.54623 13.8674C9.20974 5.2544 22.0447 2.79733 30.8447 13.1974C26.8447 22.7975 13.9333 25.2904 5.28304 19.2472C4.47525 18.6384 3.97149 17.5811 3.79463 17.1369" stroke="white" stroke-width="0.794878" stroke-linecap="round" stroke-linejoin="round"/>
<path d="M17.6448 5.99746C17.6448 5.99746 20.0448 2.98208 19.2448 0.397461M13.9844 6.50592C13.9844 6.50592 16.4448 3.84361 15.6448 1.259" stroke="white" stroke-width="0.794878" stroke-linecap="round" stroke-linejoin="round"/>
<path d="M20.882 6.84253C20.882 6.84253 24.8447 3.84375 24.0447 0.828369" stroke="white" stroke-width="0.794878" stroke-linecap="round" stroke-linejoin="round"/>
<path d="M24.4447 8.15116C24.4447 8.15116 27.9573 7.01001 29.2447 2.98193" stroke="white" stroke-width="0.794878" stroke-linecap="round" stroke-linejoin="round"/>
<path d="M27.984 10.106C27.984 10.106 31.716 9.3581 32.9401 6.17798" stroke="white" stroke-width="0.794878" stroke-linecap="round" stroke-linejoin="round"/>
<path d="M30.6409 12.3331C30.6409 12.3331 33.9526 12.3331 35.9984 9.56177" stroke="white" stroke-width="0.794878" stroke-linecap="round" stroke-linejoin="round"/>
<path d="M0.39743 11.7859C0.39743 11.7859 6.82969 4.4879 13.1974 2.98182C16.6354 2.16901 23.1322 2.5874 26.4447 3.84355C28.8447 4.75368 33.1282 8.31915 33.6447 8.58211" stroke="white" stroke-width="0.794878" stroke-linecap="round" stroke-linejoin="round"/>
<path d="M29.1517 15.5128C29.1517 15.5128 30.8627 15.378 32.3173 16.6727" stroke="white" stroke-width="0.794878" stroke-linecap="round" stroke-linejoin="round"/>
<path d="M27.2927 17.9387C27.2927 17.9387 28.2356 18.3764 28.9321 19.807" stroke="white" stroke-width="0.794878" stroke-linecap="round" stroke-linejoin="round"/>
<path d="M21.6978 7.03711C22.9984 8.48165 24.2414 10.4494 24.2414 12.6248C24.2414 17.9739 20.9 21.2374 16.7895 21.2374C12.6789 21.2374 9.08908 18.2275 9.08908 13.8008C9.08908 12.3455 9.08908 9.68114 10.182 8.50411" stroke="white" stroke-width="0.794878" stroke-linecap="round" stroke-linejoin="round"/>
<path d="M16.2637 10.0329C16.2836 10.0276 16.3084 10.0276 16.3273 10.0276C17.9121 10.0276 19.1958 11.3844 19.1958 13.059C19.1958 14.7336 17.9121 16.0904 16.3273 16.0904C14.9442 16.0904 13.7887 15.0557 13.5224 13.6828" stroke="white" stroke-width="0.794878" stroke-linecap="round" stroke-linejoin="round"/>
<path d="M15.3856 15.9352C15.3657 15.933 15.3419 15.9234 15.324 15.917C13.8346 15.3349 13.0566 13.5886 13.5872 12.0146C14.1168 10.4406 15.7542 9.637 17.2436 10.218C18.5432 10.7252 19.3033 12.1227 19.1185 13.5105" stroke="white" stroke-width="0.794878" stroke-linecap="round" stroke-linejoin="round"/>
</svg>
