<svg width="40" height="41" viewBox="0 0 40 41" fill="none" xmlns="http://www.w3.org/2000/svg">
<path d="M22.1679 0.445801C22.1679 0.445801 22.1679 0.445801 18.3975 8.7743L16.2215 13.5965C16.2215 13.5965 14.4344 16.9825 11.065 23.2486C9.83387 25.5383 8.82666 27.097 8.27514 28.4853C7.52863 30.3638 8.34199 32.5899 10.2205 33.3353C14.4477 35.0121 22.1244 32.0796 23.9294 33.0946" stroke="white" stroke-width="0.891345" stroke-linecap="round" stroke-linejoin="round"/>
<path d="M28.1311 22.9189C33.3521 24.6415 32.482 35.2652 23.9295 33.0948" stroke="white" stroke-width="0.891345" stroke-linecap="round" stroke-linejoin="round"/>
<path d="M24.0664 33.1289C24.0664 36.3344 23.3354 38.4781 23.2218 39.7315" stroke="white" stroke-width="0.891345" stroke-linecap="round" stroke-linejoin="round"/>
<path d="M20.2193 31.7666C20.2193 31.7666 13.6055 31.4591 12.4779 28.9767C11.3493 26.4943 21.6042 13.5208 22.168 10.869C22.7317 8.21728 23.3089 3.08424 25.5083 1.6748" stroke="#7D7D7D" stroke-width="0.445672" stroke-linecap="round" stroke-linejoin="round" stroke-dasharray="1.89 1.89"/>
</svg>
