<svg width="31" height="39" viewBox="0 0 31 39" fill="none" xmlns="http://www.w3.org/2000/svg">
<g clip-path="url(#clip0_1197_40548)">
<path d="M7.76202 13.7661L7.97451 14.7123C8.58794 17.4407 8.16495 20.2973 6.78775 22.7289C5.34841 25.2708 4.61871 28.1094 4.61871 30.9581C4.61871 33.0349 5.00561 35.1197 5.79144 37.0983L6.34071 38.4876" stroke="white" stroke-width="0.801863" stroke-linecap="round" stroke-linejoin="round"/>
<path d="M22.4822 13.7661L22.2677 14.7123C21.6543 17.4407 22.0773 20.2973 23.4565 22.7289C24.8978 25.2708 25.6255 28.1094 25.6255 30.9581C25.6255 33.0349 25.2386 35.1197 24.4528 37.0983L23.9035 38.4876" stroke="white" stroke-width="0.801863" stroke-linecap="round" stroke-linejoin="round"/>
<path d="M15.1211 38.4894V33.8887" stroke="white" stroke-width="0.801863" stroke-linecap="round" stroke-linejoin="round"/>
<path d="M20.2571 5.93169C17.631 5.89159 16.0353 7.40511 15.1211 9.05495C14.207 7.40511 12.6113 5.89159 9.9852 5.93169C8.22911 5.95775 6.70758 7.03625 6.83588 9.12511C7.04236 12.503 10.2739 13.6797 13.2909 12.7555C14.0025 12.537 15.1191 11.8414 15.1191 11.8414C15.1191 11.8414 16.2357 12.539 16.9474 12.7555C19.9664 13.6797 23.1959 12.503 23.4024 9.12511C23.5307 7.03425 22.0091 5.95775 20.2531 5.93169H20.2571Z" stroke="white" stroke-width="0.801863" stroke-linecap="round" stroke-linejoin="round"/>
<path d="M0.400909 28.0474C0.617413 23.5229 1.87834 19.5617 2.63209 17.555C3.00697 16.5607 3.1954 15.5062 3.18338 14.4418L3.1072 6.63361C3.08715 4.52872 4.46636 2.66639 6.48505 2.07301L12.1743 0.401123" stroke="white" stroke-width="0.801863" stroke-linecap="round" stroke-linejoin="round"/>
<path d="M29.8434 28.0472C29.6269 23.5227 28.3659 19.5615 27.6122 17.5548C27.2373 16.5605 27.0489 15.506 27.0609 14.4416L27.1371 6.63341C27.1571 4.52852 25.7779 2.6662 23.7592 2.07282L18.07 0.398926" stroke="white" stroke-width="0.801863" stroke-linecap="round" stroke-linejoin="round"/>
<path d="M4.78314 28.6246C7.26291 27.7245 11.0176 29.2982 13.7179 32.0205C14.4877 32.7963 15.7546 32.7963 16.5244 32.0205C19.2247 29.2982 22.9814 27.7245 25.4612 28.6246" stroke="white" stroke-width="0.801863" stroke-linecap="round" stroke-linejoin="round"/>
<path d="M23.8254 23.4185L21.3396 24.3747C17.3383 25.9143 12.908 25.9143 8.9047 24.3747L6.42093 23.4185" stroke="white" stroke-width="0.801863" stroke-linecap="round" stroke-linejoin="round"/>
</g>
<defs>
<clipPath id="clip0_1197_40548">
<rect width="30.2443" height="38.8904" fill="white"/>
</clipPath>
</defs>
</svg>
