<svg width="40" height="40" viewBox="0 0 40 40" fill="none" xmlns="http://www.w3.org/2000/svg">
<path d="M23.2461 11.6413C23.2496 11.0822 23.2582 9.68435 22.7308 8.2308C22.4863 7.55687 21.5792 5.93476 21.3141 6.00371C21.1679 8.0971 17.658 11.3219 17.5139 11.3998C17.3697 11.4777 20.2381 13.8686 20.8849 14.173C21.5316 14.4773 22.1828 15.0033 22.4452 14.7219C22.7076 14.4405 23.2426 12.2005 23.2461 11.6413Z" fill="white" fill-opacity="0.01"/>
<path d="M29.0407 5.70087C28.7866 5.70087 28.5804 5.49467 28.5804 5.24061V2.5711C28.5804 2.31704 28.7866 2.11084 29.0407 2.11084C29.2948 2.11084 29.501 2.31704 29.501 2.5711V5.24061C29.501 5.49467 29.2948 5.70087 29.0407 5.70087Z" fill="white"/>
<path d="M30.2377 4.41222H27.6602C27.4061 4.41222 27.2 4.20602 27.2 3.95196C27.2 3.6979 27.4061 3.4917 27.6602 3.4917H30.2377C30.4917 3.4917 30.6979 3.6979 30.6979 3.95196C30.6979 4.20602 30.4917 4.41222 30.2377 4.41222Z" fill="white"/>
<path d="M33.0915 13.6174C32.8374 13.6174 32.6312 13.4112 32.6312 13.1571V10.4876C32.6312 10.2335 32.8374 10.0273 33.0915 10.0273C33.3455 10.0273 33.5517 10.2335 33.5517 10.4876V13.1571C33.5517 13.4112 33.3455 13.6174 33.0915 13.6174Z" fill="white"/>
<path d="M34.3798 12.3287H31.7103C31.4562 12.3287 31.25 12.1225 31.25 11.8685C31.25 11.6144 31.4562 11.4082 31.7103 11.4082H34.3798C34.6338 11.4082 34.84 11.6144 34.84 11.8685C34.84 12.1225 34.6338 12.3287 34.3798 12.3287Z" fill="white"/>
<path d="M35.107 6.97672C35.5005 6.97672 35.8195 6.65773 35.8195 6.26424C35.8195 5.87075 35.5005 5.55176 35.107 5.55176C34.7135 5.55176 34.3945 5.87075 34.3945 6.26424C34.3945 6.65773 34.7135 6.97672 35.107 6.97672Z" fill="white"/>
<path d="M36.8875 18.8781C37.281 18.8781 37.6 18.5591 37.6 18.1656C37.6 17.7721 37.281 17.4531 36.8875 17.4531C36.494 17.4531 36.175 17.7721 36.175 18.1656C36.175 18.5591 36.494 18.8781 36.8875 18.8781Z" fill="white"/>
<path d="M22.4828 4.22021C26.4002 5.9999 26.4002 11.1999 25.2002 14.3999" stroke="#E9F1F7" stroke-width="0.8" stroke-linecap="round" stroke-linejoin="round" stroke-dasharray="2.25 2.25"/>
<path d="M5.58038 37.5555C5.41769 37.5555 5.26754 37.3839 5.21933 37.118C5.19875 37.0066 4.7197 34.3474 4.56202 30.7636C4.41539 27.4286 4.53691 22.6511 5.94997 18.8241C7.13554 15.6136 9.02966 13.5481 11.5801 12.6861C14.9736 11.5394 17.292 9.54059 18.2843 6.90581C19.0466 4.88256 18.7729 3.20085 18.7608 3.1301C18.7056 2.80645 18.8216 2.47059 19.021 2.3787C19.2203 2.28762 19.4272 2.47222 19.4849 2.79425C19.501 2.8837 19.8661 5.01348 18.9431 7.49863C17.8314 10.492 15.4055 12.6389 11.7337 13.8798C9.39774 14.6695 7.66883 16.5431 6.59623 19.4495C5.28361 23.004 5.17414 27.5165 5.31273 30.6766C5.46438 34.1294 5.9364 36.7463 5.94092 36.7724C5.99968 37.0952 5.88619 37.4343 5.68634 37.5303C5.65068 37.5473 5.61503 37.5555 5.57938 37.5555H5.58038Z" fill="white"/>
<path d="M17.5601 32.9917C17.3551 32.9917 17.1477 32.9445 16.9469 32.8453L11.3812 30.0946C11.1487 29.9792 11.0286 29.6297 11.1129 29.3135C11.1977 28.9973 11.4547 28.8339 11.6872 28.9485L17.2523 31.6992C17.6737 31.9065 18.1476 31.6651 18.3664 31.1367L19.2205 27.8617C19.2587 27.7154 19.337 27.5935 19.4386 27.5228L20.0208 27.1172L18.3012 26.1856C18.1118 26.0832 17.997 25.8182 18.0221 25.5427C18.0478 25.2671 18.2068 25.0501 18.4094 25.0143L20.5605 24.6372C20.42 24.4486 20.2407 24.225 20.0853 24.0446C19.9544 23.8934 19.8988 23.6528 19.9425 23.4268C19.9855 23.2008 20.12 23.0285 20.2885 22.9822L22.3715 22.4173C22.1701 21.8328 21.87 20.9557 21.573 20.0592C20.4923 16.7996 20.4983 16.4623 20.5019 16.2615C20.5061 16.0331 20.9574 14.674 21.065 14.2757C21.065 14.2757 22.3715 9.99844 19.9425 6.07175C18.6418 4.59923 18.6671 4.22305 18.8996 4.10844C19.1321 3.99301 20.4966 5.75707 20.7041 6.0717C23.1084 9.718 21.867 14.5326 21.5198 15.8153C21.4737 15.9843 21.4182 16.1908 21.4008 16.2843C21.4875 16.8671 22.4862 19.9185 23.4258 22.601C23.485 22.7708 23.4838 22.9684 23.4216 23.1366C23.3594 23.3049 23.2441 23.4244 23.1084 23.461L21.3172 23.9462C21.4182 24.0934 21.5054 24.2364 21.558 24.3543C21.6823 24.6347 21.6913 24.9761 21.5825 25.2679C21.4755 25.5557 21.2717 25.7467 21.0362 25.7808L20.2389 25.9207L20.6597 26.1483C20.7045 26.1726 20.747 26.2068 20.784 26.2499C20.983 26.4799 21.0882 26.8278 21.0655 27.1814C21.0422 27.535 20.894 27.8528 20.6681 28.0316C20.6609 28.0373 20.6543 28.0422 20.6471 28.0471L20.0052 28.4941L19.199 31.5854C19.1918 31.6122 19.1834 31.6391 19.1739 31.6643C18.8541 32.4966 18.2199 32.9884 17.5595 32.9884L17.5601 32.9917Z" fill="white"/>
<path d="M8.75942 12.4202C8.70554 12.3532 8.66955 12.2596 8.66301 12.1522C8.64928 11.9247 8.77346 11.723 8.94102 11.7015C9.83659 11.5865 11.1584 11.2607 12.1044 10.3882C13.3987 9.19448 13.9698 8.75804 14.5064 7.63024C15.4304 5.68893 15.3729 3.56244 15.3752 3.54354C15.4043 3.31821 15.5618 3.16539 15.727 3.2026C15.8922 3.23981 16.0028 3.45175 15.974 3.67745C15.9632 3.76019 16.0038 6.30672 15.0187 8.38923C14.1034 10.3241 12.0664 12.1333 8.99091 12.5263C8.90256 12.5374 8.81986 12.4961 8.75944 12.421L8.75942 12.4202Z" fill="white"/>
</svg>
