<svg width="35" height="33" viewBox="0 0 35 33" fill="none" xmlns="http://www.w3.org/2000/svg">
<path d="M27.4999 5.31821C24.845 6.05148 24.2504 6.64607 23.5172 9.30097C22.7839 6.64607 22.1893 6.05148 19.5344 5.31821C22.1893 4.58494 22.7839 3.99034 23.5172 1.33545C24.2504 3.99034 24.845 4.58494 27.4999 5.31821Z" stroke="white" stroke-width="1.16261" stroke-linecap="round" stroke-linejoin="round"/>
<path d="M27.6718 26.3313C25.3466 26.9733 24.8259 27.4939 24.184 29.8191C23.542 27.4939 23.0213 26.9733 20.6961 26.3313C23.0213 25.6894 23.542 25.1687 24.184 22.8435C24.8259 25.1687 25.3466 25.6894 27.6718 26.3313Z" stroke="white" stroke-width="1.16261" stroke-linecap="round" stroke-linejoin="round"/>
<path d="M34.297 15.4584C31.3905 16.2614 30.7394 16.9117 29.9372 19.8182C29.135 16.9117 28.484 16.2614 25.5775 15.4584C28.484 14.6562 29.135 14.0051 29.9372 11.0986C30.7394 14.0051 31.3905 14.6562 34.297 15.4584Z" stroke="white" stroke-width="1.16261" stroke-linecap="round" stroke-linejoin="round"/>
<path d="M8.82593 10.26C9.80501 11.1718 11.2367 11.5713 12.5454 11.2981C12.8236 11.4949 13.1641 11.7058 13.4705 11.8561" stroke="white" stroke-width="1.16261" stroke-linecap="round" stroke-linejoin="round"/>
<path d="M14.5327 0.581299C15.5076 2.38832 15.8522 4.44863 15.8165 6.50229C15.8007 7.39916 15.6861 8.30599 15.8622 9.18542C15.9793 9.76921 16.2226 10.3223 16.5224 10.8372C16.9874 11.636 17.5928 12.3535 18.302 12.9465C18.5063 13.1175 18.7247 13.2844 18.8534 13.517C19.1798 14.1074 18.7687 14.8872 18.1708 15.1986C17.572 15.51 16.8612 15.4826 16.1877 15.4477" stroke="white" stroke-width="1.16261" stroke-linecap="round" stroke-linejoin="round"/>
<path d="M5.23181 23.8035C5.52828 24.9137 6.70417 25.3937 7.81944 25.6719C9.90383 26.191 12.048 26.5754 14.1914 26.4343C15.1688 26.3703 16.3272 26.0382 16.5913 25.0948C16.8213 24.271 16.774 23.4497 16.7109 22.5968C17.1502 22.4191 17.5023 21.788 17.5496 21.3171" stroke="white" stroke-width="1.16261" stroke-linecap="round" stroke-linejoin="round"/>
<path d="M17.4433 15.4246C17.4442 15.7609 17.4275 16.0216 17.44 16.3405C17.4442 16.4435 17.4483 16.5481 17.4765 16.6478C17.577 16.9991 17.9516 17.21 18.0786 17.5521C18.2156 17.9208 18.028 18.3302 17.7929 18.645C17.5272 19.0012 17.1934 19.3068 16.8147 19.5402C16.6959 19.6141 16.5722 19.6805 16.4435 19.7353C16.1753 19.8508 15.8879 19.9172 15.5973 19.9479C15.3938 19.9695 15.1887 19.9745 14.9836 19.962" stroke="white" stroke-width="1.16261" stroke-linecap="round" stroke-linejoin="round"/>
<path d="M4.65051 31.9716C5.13299 30.7044 6.28979 27.3843 7.60935 25.6113" stroke="white" stroke-width="1.16261" stroke-linecap="round" stroke-linejoin="round"/>
<path d="M12.5454 11.2972C12.8477 10.9593 12.8444 10.211 12.7888 9.85229" stroke="white" stroke-width="1.16261" stroke-linecap="round" stroke-linejoin="round"/>
<path d="M8.71964 7.52694C10.0193 6.65416 11.8014 6.53208 13.3701 6.94564" stroke="white" stroke-width="1.16261" stroke-linecap="round" stroke-linejoin="round"/>
<path d="M2.32532 5.78313C4.21372 6.33703 6.31721 5.82715 8.02209 4.84474C9.7278 3.86317 11.201 2.27206 12.2075 0.581299" stroke="white" stroke-width="1.16261" stroke-linecap="round" stroke-linejoin="round"/>
<path d="M0.58139 13.34C2.5819 12.0611 4.0061 10.3662 4.95611 8.27686" stroke="white" stroke-width="1.16261" stroke-linecap="round" stroke-linejoin="round"/>
</svg>
