<svg width="40" height="40" viewBox="0 0 40 40" fill="none" xmlns="http://www.w3.org/2000/svg">
<path d="M10.1395 21.7883C10.5923 30.5032 10.1395 24.4707 9.4588 34.306" stroke="white" stroke-width="0.894944" stroke-linecap="round" stroke-linejoin="round"/>
<path d="M18.6331 31.3521V32.1021" stroke="white" stroke-width="0.894944" stroke-linecap="round" stroke-linejoin="round"/>
<path d="M16.915 16.6975C16.17 19.5261 13.427 21.6239 10.1571 21.6239C6.31442 21.6239 3.20001 19.2821 3.20001 15.7077C3.20001 12.9834 4.49097 11.8893 5.71033 9.49957C7.30333 6.37685 7.26082 4.80005 7.26082 4.80005" stroke="white" stroke-width="0.894944" stroke-linecap="round" stroke-linejoin="round"/>
<path d="M9.56168 6.31592C9.56168 6.31592 9.38828 8.25496 8.13984 10.2441C7.55589 11.1742 7.02228 12.0585 7.02228 12.979C7.02228 15.0682 8.89942 16.4831 11.2106 16.5896C15.3296 16.7793 16.9226 12.3259 16.9226 12.3259" stroke="#7D7D7D" stroke-width="0.447472" stroke-linecap="round" stroke-linejoin="round" stroke-dasharray="1.9 1.9"/>
<path d="M28.112 21.5696C27.3602 29.9852 28.0975 25.3648 29.1294 34.306" stroke="white" stroke-width="0.894944" stroke-linecap="round" stroke-linejoin="round"/>
<path d="M20.3516 16.6975C21.0966 19.5261 23.8396 21.6239 27.1095 21.6239C30.9522 21.6239 34.0666 19.2821 34.0666 15.7077C34.0666 12.9834 32.7756 11.8893 31.5563 9.49957C29.9633 6.37685 30.0058 4.80005 30.0058 4.80005" stroke="white" stroke-width="0.894944" stroke-linecap="round" stroke-linejoin="round"/>
<path d="M27.7045 6.31592C27.7045 6.31592 27.8779 8.25496 29.1264 10.2441C29.7103 11.1742 30.2439 12.0585 30.2439 12.979C30.2439 15.0682 28.3668 16.4831 26.0556 16.5896C21.9366 16.7793 20.3436 12.3259 20.3436 12.3259" stroke="#7D7D7D" stroke-width="0.447472" stroke-linecap="round" stroke-linejoin="round" stroke-dasharray="1.9 1.9"/>
</svg>
