<svg width="40" height="40" viewBox="0 0 40 40" fill="none" xmlns="http://www.w3.org/2000/svg">
<path d="M23.583 1.79199H23.5957L23.6992 1.80469C23.9013 1.8482 24.0623 2.00203 24.1143 2.20215L24.1309 2.30566C24.1346 2.36037 24.2841 4.14438 25.5732 6.95215C26.7768 9.57452 29.2491 13.6482 34.1904 18.1729C35.6543 19.5135 35.948 21.4556 35.8633 23.0967C35.7786 24.7359 35.3171 26.0663 35.2783 26.1748C35.1766 26.4603 34.8625 26.6095 34.5771 26.5078C34.3275 26.4188 34.1813 26.1676 34.2168 25.915L34.2441 25.8066C34.2524 25.7827 34.6515 24.6277 34.751 23.2051C34.8503 21.7841 34.6514 20.0835 33.4492 18.9824C28.3354 14.2995 25.7807 10.0622 24.5391 7.33301C24.0967 6.36056 23.784 5.5047 23.5625 4.79102L23.5283 4.68164L23.4883 4.78906C23.2192 5.50558 22.84 6.34978 22.3086 7.27637C20.865 9.79257 17.9587 13.4329 12.3125 16.4727C8.74892 18.3919 6.63508 20.7739 6.21582 23.3652C5.98033 24.8189 6.33737 25.9763 6.53516 26.4717L6.65234 26.7324C6.79481 26.9989 6.69596 27.3323 6.43066 27.4756H6.42969C6.3464 27.5208 6.25638 27.541 6.16797 27.541C5.97419 27.5407 5.7878 27.4387 5.68848 27.2568C5.64191 27.172 4.51487 25.0639 5.3418 22.2734C6.11172 19.6767 8.27742 17.3987 11.792 15.5059C14.7615 13.9069 18.8277 11.0969 21.3213 6.79199C22.8106 4.22125 23.0351 2.30428 23.0371 2.28027C23.0686 2.00207 23.3048 1.79199 23.583 1.79199Z" fill="white" stroke="white" stroke-width="0.0784236"/>
<path d="M21.0851 1.91577C21.2059 1.79632 21.3959 1.78022 21.5353 1.87671C21.6749 1.97342 21.726 2.15626 21.6564 2.31128C21.6177 2.39795 20.6551 4.51672 18.3508 6.81714C16.294 8.87088 12.7476 11.4405 7.41913 12.2146L6.89862 12.2839C6.88283 12.2855 6.86818 12.2869 6.85565 12.2869C6.67938 12.2868 6.528 12.1555 6.50604 11.9763C6.48275 11.7829 6.62049 11.607 6.81464 11.5837C12.2325 10.9307 15.8076 8.36007 17.8527 6.31812C18.7282 5.44425 19.4031 4.59306 19.9006 3.88257L19.8459 3.82788C18.394 4.84458 16.1315 6.09345 13.4182 6.44995C13.2239 6.47467 13.0473 6.33937 13.0217 6.14624C12.9963 5.95287 13.1329 5.77517 13.3264 5.74976C15.5487 5.45817 17.4803 4.5081 18.8596 3.62769C20.2388 2.74724 21.0673 1.9341 21.0851 1.91577Z" fill="white" stroke="white" stroke-width="0.0784236"/>
<path d="M17 28.7529C15.2087 30.2616 14.5 31.7529 14 33.2529" stroke="white" stroke-width="0.5"/>
<path d="M24 28.7529C25.7913 30.2616 26.5 31.7529 27 33.2529" stroke="white" stroke-width="0.5"/>
<path d="M17.2977 19.0116C17.5379 18.8265 17.8819 18.8716 18.0673 19.1117C18.252 19.3522 18.2076 19.6969 17.9673 19.8823C17.0078 20.6205 15.9858 21.0131 15.0465 21.2083L15.0082 21.2161C13.1643 21.5896 11.6465 21.2047 11.5535 21.1806C11.2602 21.1032 11.0852 20.8029 11.1624 20.5095C11.2302 20.2535 11.4677 20.0871 11.7224 20.1011L11.8326 20.1187C11.8568 20.1248 12.6187 20.3121 13.6759 20.2664C14.7332 20.2206 16.089 19.9417 17.2977 19.0116Z" fill="white" stroke="white" stroke-width="0.0784236"/>
<path d="M16.4709 20.1796C16.585 20.022 16.8064 19.9875 16.9643 20.1016L17.9935 20.8486C18.1512 20.9628 18.1872 21.1839 18.0724 21.3418C18.0183 21.4162 17.94 21.4633 17.8564 21.4802L17.7851 21.4877C17.7372 21.4877 17.6889 21.4785 17.6437 21.4585L17.5791 21.4198L16.5499 20.6727L16.4966 20.6258C16.3854 20.5048 16.3703 20.3179 16.4709 20.1796Z" fill="white" stroke="white" stroke-width="0.0784236"/>
<path d="M12.5675 20.9923C12.6684 20.8258 12.885 20.7718 13.0523 20.8722C13.1983 20.9606 13.2584 21.138 13.2033 21.293L13.1725 21.357L12.5152 22.4457C12.4616 22.5338 12.3766 22.5904 12.2833 22.6093L12.2823 22.6095C12.2197 22.6221 12.1535 22.6184 12.0911 22.5954L12.0304 22.5659C11.8638 22.465 11.8097 22.2483 11.9102 22.081L12.5675 20.9923Z" fill="white" stroke="white" stroke-width="0.0784236"/>
<path d="M14.8237 20.5009C15.0145 20.4625 15.2008 20.5866 15.2394 20.7774L15.5351 22.237C15.5738 22.4277 15.4505 22.6146 15.2598 22.6534C15.0689 22.6921 14.8818 22.5681 14.8431 22.3771L14.5474 20.9175C14.5088 20.7266 14.6328 20.5395 14.8237 20.5009Z" fill="white" stroke="white" stroke-width="0.0784236"/>
<path d="M20.71 21.4504C20.9039 21.4652 21.0498 21.6353 21.0352 21.8293C21.0266 21.945 20.8025 24.6814 19.5127 26.7043C19.3662 26.9343 19.328 27.2136 19.4082 27.4709C19.4885 27.7266 19.6697 27.9255 19.918 28.0295L20.6846 28.3508C20.842 28.4169 20.9263 28.5829 20.8945 28.7434L20.874 28.8118C20.8176 28.9471 20.6865 29.0285 20.5488 29.0286H20.5391C20.4969 29.0274 20.454 29.0197 20.4131 29.0022H20.4121L19.6455 28.6809C19.2084 28.4979 18.877 28.1345 18.7354 27.6829C18.5922 27.2258 18.6591 26.7314 18.918 26.3254C19.5155 25.3879 19.8678 24.2562 20.0713 23.3577C20.1731 22.908 20.238 22.516 20.2773 22.2346L20.3311 21.7756C20.3458 21.582 20.5158 21.4366 20.71 21.4504Z" fill="white" stroke="white" stroke-width="0.0784236"/>
<path d="M19.6859 30.5496C19.7655 30.5214 19.8529 30.5224 19.931 30.5525V30.5535L20.6283 30.822L20.642 30.8269L20.6556 30.822L21.389 30.5535C21.4672 30.5246 21.5531 30.5245 21.6322 30.5535L24.3793 31.5613C24.5149 31.6114 24.6072 31.7397 24.6107 31.8835C24.6142 32.0282 24.5292 32.1603 24.3959 32.2175C24.328 32.2465 22.6763 32.9402 20.6097 32.9402C18.5444 32.94 16.8925 32.2464 16.8256 32.2175C16.6922 32.1604 16.6067 32.0277 16.6107 31.8826C16.6149 31.7373 16.7083 31.6091 16.8451 31.5603L19.6859 30.5496ZM19.7845 31.2634L18.1713 31.8376L18.1801 31.8923L18.1752 31.9128C18.8078 32.0757 19.6677 32.2351 20.6107 32.2351C21.5537 32.2351 22.435 32.0724 23.0677 31.908L23.1888 31.8767L23.0707 31.8328L21.5238 31.2654L21.5101 31.2605L21.4965 31.2654L20.7601 31.5359C20.6797 31.5655 20.5916 31.565 20.5111 31.5339L19.8119 31.2644L19.7992 31.2585L19.7845 31.2634Z" fill="white" stroke="white" stroke-width="0.0784236"/>
<path d="M33.4629 19.7949C33.7707 19.8233 33.9881 20.0698 33.958 20.3389L32.9922 28.9053C32.561 32.3166 30.6785 35.0309 27.3896 36.9805L24.3516 38.7803C23.3021 39.4026 22.1504 39.7138 21 39.7139L20.5684 39.6992C19.5626 39.6312 18.5668 39.3248 17.6484 38.7803L14.6104 36.9805C11.4663 35.1173 9.58264 32.4085 9.00977 28.9297H9.01074C9.01018 28.9251 9.00935 28.92 9.00879 28.917C9.0082 28.9138 9.00706 28.9119 9.00684 28.9102L8.04297 21.0645C8.00972 20.7952 8.22423 20.5461 8.53125 20.5156C8.8011 20.4884 9.04308 20.639 9.12109 20.8574L9.14355 20.9551L10.1074 28.791L10.1084 28.793C10.6351 31.9762 12.3556 34.4523 15.2207 36.1504L18.2588 37.9512C19.9747 38.9685 22.0252 38.9683 23.7412 37.9512L26.7793 36.1504C29.7779 34.3732 31.4997 31.8999 31.8916 28.7998V28.7988L32.8555 20.2393C32.886 19.9693 33.1547 19.7666 33.4629 19.7949Z" fill="white" stroke="white" stroke-width="0.0784236"/>
<path d="M25.7312 21.2543C27.5836 21.6295 29.1078 21.2429 29.2033 21.2183C29.5177 21.1355 29.7052 20.8142 29.6225 20.4998C29.5396 20.1862 29.2192 19.998 28.9048 20.0808C28.8609 20.0919 25.8744 20.828 23.4737 18.9806C23.2162 18.782 22.8472 18.8304 22.6486 19.0879C22.4508 19.3455 22.4984 19.7144 22.7559 19.913C23.734 20.6656 24.7765 21.0616 25.7311 21.255L25.7312 21.2543Z" fill="white"/>
<path d="M22.8834 21.519C22.9871 21.5401 23.0993 21.5196 23.1914 21.4518L24.2205 20.7049C24.3959 20.578 24.4352 20.3323 24.3076 20.1568C24.1806 19.9815 23.9348 19.9429 23.7595 20.0698L22.7304 20.8167C22.555 20.9436 22.5157 21.1893 22.6434 21.3648C22.7034 21.4474 22.7896 21.5001 22.8826 21.5189L22.8834 21.519Z" fill="white"/>
<path d="M28.4567 22.6482C28.5497 22.667 28.6495 22.652 28.737 22.5993C28.9222 22.4872 28.9821 22.2465 28.8702 22.0606L28.2129 20.972C28.1008 20.7869 27.8601 20.7269 27.6742 20.8389C27.489 20.951 27.429 21.1917 27.541 21.3776L28.1983 22.4662C28.2577 22.5639 28.3521 22.627 28.4559 22.648L28.4567 22.6482Z" fill="white"/>
<path d="M25.4801 22.6917C25.6922 22.7347 25.8992 22.5974 25.9422 22.3852L26.2381 20.9248C26.281 20.7127 26.1437 20.5056 25.9316 20.4627C25.7195 20.4197 25.5124 20.557 25.4694 20.7691L25.1736 22.2295C25.1306 22.4417 25.2679 22.6487 25.4801 22.6917Z" fill="white"/>
</svg>
